<?xml version="1.0" encoding="utf-8"?>
<!-- Generator: Adobe Illustrator 19.2.1, SVG Export Plug-In . SVG Version: 6.00 Build 0)  -->
<svg version="1.1" id="Layer_1" xmlns="http://www.w3.org/2000/svg" xmlns:xlink="http://www.w3.org/1999/xlink" x="0px" y="0px"
	 viewBox="0 0 900 600" style="enable-background:new 0 0 900 600;" xml:space="preserve">
<style type="text/css">
	.st0{fill:#B7E3F1;}
	.st1{fill:none;stroke:#2995CB;stroke-width:10;stroke-linecap:round;stroke-linejoin:round;stroke-miterlimit:10;}
	.st2{fill:#FFFFFF;}
	.st3{opacity:0.25;fill:#B7E3F1;}
	.st4{fill:#2995CB;}
	.st5{fill:#62C8F2;}
</style>
<g>
	<path class="st0" d="M691.4,519.2H220c-37,0-67-30-67-67v-254c0-37,30-67,67-67h484.7c37,0,67,30,67,67v240.9
		C771.8,489.6,746.9,519.2,691.4,519.2z"/>
	<path class="st1" d="M690.5,504.2H212c-37,0-67-30-67-67v-254c0-37,30-67,67-67h480.7c37,0,67,30,67,67l-3,252.5
		C756.8,480.6,735.5,504.2,690.5,504.2z"/>
	<path class="st2" d="M683.6,451.5H171.1c-16.6,0-30-13.4-30-30V144.3c0-16.6,13.4-30,30-30h512.5c16.6,0,30,13.4,30,30v277.1
		C713.6,438,700.1,451.5,683.6,451.5z"/>
	<path class="st3" d="M636.9,399.3H218.3c-16.6,0-30-13.4-30-30V185.7c0-16.6,13.4-30,30-30h418.6c16.6,0,30,13.4,30,30v183.6
		C666.9,385.9,653.5,399.3,636.9,399.3z"/>
	<path class="st1" d="M683.6,447H171.1c-16.6,0-30-13.4-30-30V139.9c0-16.6,13.4-30,30-30h512.5c16.6,0,30,13.4,30,30v274.1
		C713.6,433.3,706.5,445.3,683.6,447z"/>
	<g>
		<path class="st4" d="M265.7,202.8c2.9,0,4.4,1.4,4.4,3.7v10.3c0,1.2,0,2.9-4.4,2.9c-2.3,0-2.5-0.2-3.7-0.2
			c-11.1,0-11.1,20.2-11.1,24.5c0,4,0.1,25.7,10.6,25.7c1.5,0,1.5-0.2,4.2-0.2c4.4,0,4.4,4.2,4.4,5.4v7.8c0,2.9-1.5,4.3-4.4,4.3
			c-16.6,0-35.9-7.6-35.9-43.3C229.8,210.4,249.1,202.8,265.7,202.8z"/>
		<path class="st4" d="M317.6,269.5c4.9,0,5.5,2.6,5.5,6.1v1.5c0,4.7,0,9.4-7,9.4h-26.4c-7,0-7-4.7-7-9.4v-64.4c0-4.7,0-9.4,7-9.4
			h5.9c7,0,7,4.7,7,9.4v50.4c0,2.8,0,6.4,3.6,6.6C312.4,269.7,315.2,269.5,317.6,269.5z"/>
		<path class="st4" d="M351.6,265c0.2,2.6,2.6,3.9,4.9,3.9c6.7,0,8.9-0.2,11.3-0.2c4.9,0,6.4,1.4,6.4,4.9v8.2c0,3.5-1.2,4.7-4.7,4.7
			h-30.9c-7,0-7-7-7-9.4v-64.4c0-4.7,0-9.4,7-9.4h30.2c2.9,0,5.5,1.2,5.5,3.5v9.9c0,2.8-2.3,2.9-5.3,2.9c-4.6,0-8.2-0.2-11.1-0.2
			c-6.4,0-6.4,2.3-6.4,6.1c0,7.6,0,9.6,5.9,9.6c7.3,0,8.4-0.2,11.1-0.2c4.1,0,4.3,4.1,4.3,5.4v7.5c0,3.5-2.5,3.7-5.4,3.7
			c-6,0-9.7-0.2-12.2-0.2c-3.7,0-3.7,1.6-3.7,5.5V265z"/>
		<path class="st4" d="M444.7,280.6c0,5.4-3.6,5.9-10.3,5.9h-6.2c-7.3,0-3.6-17.6-8.3-17.6h-9.4c-4.7,0-2,17.6-9,17.6H396
			c-6.1,0-9.7-0.5-9.7-5.9c0-7,2.8-13.2,11.9-67.9c0.9-5.9,3.3-9.4,8-9.4h18c4.7,0,7,3.5,8.2,9.4
			C440.4,260.7,444.7,273.6,444.7,280.6z M410.7,249.5c0,1.9,0.8,1.9,4.6,1.9c3.6,0,4.6,0,4.6-1.8c0-0.5,0-1.1-0.1-1.9
			c-1.4-11.5-1.9-25.6-4.4-25.6c-2.5,0-3.3,14-4.4,25.6C410.7,248.4,410.7,249,410.7,249.5z"/>
		<path class="st4" d="M493.1,240.8c0.4,0,0.6-0.4,0.6-1.2v-26.9c0-4.7,0-9.4,7-9.4h5.8c7,0,7,4.7,7,9.4v64.4c0,4.7,0,9.4-7,9.4
			c-10.5,0-11.3-1.9-13-5.4l-15.6-33.8c-0.4-0.7-0.7-1.2-0.9-1.2c-0.4,0-0.5,0.5-0.5,1.2l0.1,29.8c0,4.7,0,9.4-7,9.4h-5.8
			c-7,0-7-4.7-7-9.4v-64.4c0-4.7,0-9.4,7-9.4h6.2c3.9,0,5.1,0.5,6.9,4.1l15.1,32.2C492.4,240.5,492.8,240.8,493.1,240.8z"/>
		<path class="st4" d="M550.9,202.8c9.7,0,16.3,1.8,16.3,5v9c0,1.3-0.5,3.5-4.4,3.5h-0.9c-1.9,0-6.1-1.3-9.5-1.3c-2.8,0-5,0.9-5,4.7
			c0,3.6,1.1,5.5,5.6,9.2c13.9,11.5,16.7,19.7,16.7,29.1c0,5.4-0.1,10.3-3.2,14.9c-3.9,5.9-9.9,8.1-12.5,8.8
			c-3.2,0.8-7.6,1.3-11.2,1.3c-8.7,0-17.1-1.6-17.1-6.3v-9c0-1.4,1.2-2.8,4.3-2.8c3,0,5.6,1.8,12.3,1.8c3.3,0,7.7-2.6,7.7-6.2
			c0-2.7-0.1-4.7-7.3-11.7c-10.9-10.6-16-15.6-16-25.2C526.7,204.5,541.6,202.8,550.9,202.8z"/>
		<path class="st4" d="M601.6,265c0.2,2.6,2.6,3.9,4.9,3.9c6.7,0,8.9-0.2,11.3-0.2c4.9,0,6.4,1.4,6.4,4.9v8.2c0,3.5-1.2,4.7-4.7,4.7
			h-30.9c-7,0-7-7-7-9.4v-64.4c0-4.7,0-9.4,7-9.4h30.2c2.9,0,5.5,1.2,5.5,3.5v9.9c0,2.8-2.3,2.9-5.3,2.9c-4.6,0-8.2-0.2-11.1-0.2
			c-6.4,0-6.4,2.3-6.4,6.1c0,7.6,0,9.6,5.9,9.6c7.3,0,8.4-0.2,11.1-0.2c4.1,0,4.3,4.1,4.3,5.4v7.5c0,3.5-2.5,3.7-5.4,3.7
			c-6,0-9.7-0.2-12.2-0.2c-3.7,0-3.7,1.6-3.7,5.5V265z"/>
	</g>
	<g>
		<path class="st4" d="M289.9,351h-16.7v-34.3H289c7.3,0,11.5,3.4,11.5,8.8c0,3.2-1.6,5.9-4.3,7.4c3.6,1.4,5.5,4.4,5.5,8.1
			C301.6,347,297.4,351,289.9,351z M288.4,323.3H281v7h7.6c2.6,0,4.2-1.3,4.2-3.6C292.8,324.4,291.2,323.3,288.4,323.3z
			 M289.5,336.5H281v7.9h8.4c2.7,0,4.5-1.4,4.5-3.9C293.8,338,292.3,336.5,289.5,336.5z"/>
		<path class="st4" d="M326.7,336.7V351H319v-14.2l-12.2-20.1h8.9l7.2,12.9l7.2-12.9h8.8L326.7,336.7z"/>
		<path class="st4" d="M370.7,325.8c0,2.2,2.4,3,5.5,3.6c5.8,1.2,14.5,2.7,14.5,10.8c0,6.4-5,11.3-13.9,11.3c-6.7,0-12-2.8-14.7-7.4
			l5.9-3.9c1.8,3.5,5.6,5,9.1,5c3.8,0,6.1-1.5,6.1-4c0-2.9-3.5-3.5-7.2-4.2c-6.4-1.2-12.9-3.4-12.9-10.6c0-6.6,5.6-10.4,13.1-10.4
			c5.2,0,10.6,1.8,13.9,6.7l-5.7,3.8c-1.7-2.5-4.8-4.1-8.4-4.1C373.1,322.4,370.7,323.6,370.7,325.8z"/>
		<path class="st4" d="M427.5,346.7l2.6,3l-4.9,4.1l-3-3.7c-2.1,0.9-4.5,1.4-7,1.4c-10.7,0-17.1-7.9-17.1-17.8
			c0-9.9,6.4-17.7,17.1-17.7c10.6,0,17.1,7.8,17.1,17.7C432.3,338.9,430.5,343.5,427.5,346.7z M415.2,323.2c-5.9,0-9.1,4.6-9.1,10.6
			c0,6,3.2,10.8,9.1,10.8c0.8,0,1.5-0.1,2.2-0.4L414,340l4.5-3.6l3.8,4.6c1.3-1.9,2.1-4.3,2.1-7.1
			C424.3,327.8,421.1,323.2,415.2,323.2z"/>
		<path class="st4" d="M469.5,337.8c0,8.8-5.7,13.7-14.3,13.7c-8.5,0-14.2-4.9-14.2-13.7v-21.2h7.6v21.2c0,4.3,2.3,6.7,6.6,6.7
			c4.2,0,6.6-2.4,6.6-6.7v-21.2h7.6V337.8z"/>
		<path class="st4" d="M501.7,351l-2.4-7.7h-12.1l-2.4,7.7h-8.4l12.3-34.3h9.2l12.3,34.3H501.7z M493.3,323.2l-4.3,13.9h8.5
			L493.3,323.2z"/>
		<path class="st4" d="M538.2,351l-6.3-12.2h-6.1V351h-7.7v-34.3h15.7c8.1,0,12.4,4.4,12.4,10.8c0,5.1-2.9,8.3-6.7,10l7.1,13.5
			H538.2z M533.6,323.6h-7.8v9h7.8c2.8,0,4.8-1.7,4.8-4.6C538.4,325.2,536.4,323.6,533.6,323.6z"/>
		<path class="st4" d="M555.4,351v-34.3h25v6.9h-17.3v6.7h15.4v6.1h-15.4v7.6h17.8v6.9H555.4z"/>
	</g>
	<circle class="st5" cx="761.1" cy="48.5" r="16.1"/>
	<circle class="st1" cx="752.1" cy="37.9" r="16.1"/>
	<circle class="st5" cx="343.1" cy="552.1" r="16.1"/>
	<circle class="st1" cx="337.1" cy="542.5" r="16.1"/>
	<circle class="st5" cx="88.9" cy="376.7" r="20.6"/>
	<circle class="st1" cx="82.2" cy="368.3" r="20.6"/>
	<circle class="st5" cx="837.3" cy="472.9" r="20.6"/>
	<circle class="st1" cx="828.3" cy="460" r="20.6"/>
	<circle class="st5" cx="816.2" cy="403.8" r="12.1"/>
	<circle class="st1" cx="810.9" cy="396.2" r="12.1"/>
	<circle class="st5" cx="179.7" cy="78.2" r="12.8"/>
	<circle class="st1" cx="174.2" cy="70.2" r="12.8"/>
	<circle class="st5" cx="113.8" cy="88.5" r="32.6"/>
	<circle class="st1" cx="104.6" cy="78.2" r="32.6"/>
	<circle class="st5" cx="455.8" cy="73.7" r="18"/>
	<circle class="st1" cx="448" cy="62.5" r="18"/>
	<line class="st1" x1="275.9" y1="399.3" x2="507.4" y2="399.3"/>
	<line class="st1" x1="537.3" y1="399.3" x2="560.3" y2="399.3"/>
	<line class="st1" x1="300.1" y1="156.8" x2="606.5" y2="156.8"/>
	<path class="st1" d="M666.9,258.4v117.9c0.6,15.2-4.5,23-21,23h-63.8"/>
	<path class="st1" d="M187.9,285.2V183.5c0-16.6,8-26.8,24.3-26.8h60.5"/>
	<circle class="st5" cx="391.9" cy="155.7" r="12.8"/>
	<circle class="st1" cx="386.4" cy="147.8" r="12.8"/>
	<path class="st2" d="M277.8,480c-0.5,0-0.9,0-1.4,0.1c0.9-3.4,1.4-6.9,1.4-10.6c0-18.3-11.6-33.8-27.8-39.8
		c-4.1-14-12.2-26.3-23-35.5c10.5-5.6,17.7-16.7,17.7-29.4c0-18.4-14.9-33.3-33.3-33.3s-33.3,14.9-33.3,33.3c0,4.3,0.8,8.4,2.3,12.1
		c-0.2,0-0.4,0-0.6,0c-38,0-69.2,28.9-72.8,66c-3.6-1.9-7.6-3.3-11.8-4.1c-22.8-4.2-44.6,10.8-48.8,33.6
		C42.2,495.2,57.3,517,80,521.2c18.9,3.5,37.1-6.3,45.1-22.7c13.4,15.1,32.9,24.6,54.6,24.6c15.7,0,30.3-5,42.2-13.5
		c4.2,1.4,8.7,2.2,13.4,2.2c8,0,15.4-2.2,21.7-6c2.1,9.5,10.6,16.6,20.7,16.6c11.7,0,21.2-9.5,21.2-21.2
		C299,489.5,289.5,480,277.8,480z"/>
	<path class="st5" d="M282.8,481.5C282.3,481.5,283.3,481.5,282.8,481.5C283.7,478.1,282.8,485.2,282.8,481.5
		c0-18.3-8.1-39-24.3-44.9c-4.1-14-15.7-21.1-26.5-30.3c10.5-5.6,17.7-16.7,17.7-29.4c0-18.4-14.9-33.3-33.3-33.3
		s-33.3,14.9-33.3,33.3c0,4.3,0.8,8.4,2.3,12.1c-0.2,0-0.4,0-0.6,0c-38,0-69.2,28.9-72.8,66c-3.6-1.9-7.6-3.3-11.8-4.1
		c-22.8-4.2-44.6,10.8-48.8,33.6C47.2,507.2,62.3,529,85,533.2c18.9,3.5,37.1-6.3,45.1-22.7c13.4,15.1,32.9,24.6,54.6,24.6
		c15.7,0,30.3-5,42.2-13.5c4.2,1.4,8.7,2.2,13.4,2.2c8,0,15.4-2.2,21.7-6c2.1,9.5,10.6,16.6,20.7,16.6c11.7,0,21.2-9.5,21.2-21.2
		C304,501.5,294.5,481.5,282.8,481.5z"/>
	<path class="st1" d="M274.2,480c-0.5,0-0.9,0-1.4,0.1c0.9-3.4,1.4-6.9,1.4-10.6c0-18.3-11.6-33.8-27.8-39.8
		c-4.1-14-12.2-26.3-23-35.5c10.5-5.6,17.7-16.7,17.7-29.4c0-18.4-14.9-33.3-33.3-33.3s-33.3,14.9-33.3,33.3c0,4.3,0.8,8.4,2.3,12.1
		c-0.2,0-0.4,0-0.6,0c-38,0-69.2,28.9-72.8,66c-3.6-1.9-7.6-3.3-11.8-4.1c-22.8-4.2-44.6,10.8-48.8,33.6
		c-4.2,22.8,10.8,44.6,33.6,48.8c18.9,3.5,37.1-6.3,45.1-22.7c13.4,15.1,32.9,24.6,54.6,24.6c15.7,0,30.3-5,42.2-13.5
		c4.2,1.4,8.7,2.2,13.4,2.2c8,0,15.4-2.2,21.7-6c2.1,9.5,10.6,16.6,20.7,16.6c11.7,0,21.2-9.5,21.2-21.2
		C295.4,489.5,285.9,480,274.2,480z"/>
	<path class="st2" d="M798.6,106.8c-5.1-19.5-24.9-31.1-44.4-26c-9.3,2.4-16.8,8.3-21.6,15.8c-8.5-14.8-24.9-24.2-43-22.9
		c-16.4,1.2-30.1,10.9-37.2,24.5c-5.3-8-15.3-12.2-25.2-9.6c-12.4,3.2-19.8,15.9-16.6,28.3s15.9,19.8,28.3,16.6
		c3.5-0.9,6.6-2.6,9.2-4.8c3.6,17.5,17,31,33.8,35.2c-4.1,11.1-5,23.6-1.8,35.9c8,30.5,38,49.3,68.6,43.9c0,0.1,0,0.2,0,0.2
		c3.2,12.4,15.9,19.8,28.3,16.6c12.4-3.2,19.8-15.9,16.6-28.3c-1.2-4.7-3.9-8.8-7.3-11.7c10.5-14.1,14.8-32.7,10-51
		c-2.3-9-6.6-16.9-12.3-23.5C796.3,137.5,802.6,122,798.6,106.8z"/>
	<path class="st5" d="M806.9,116.4c-5.1-19.5-24.9-31.1-44.4-26c-9.3,2.4-16.8,8.3-21.6,15.8c-8.5-14.8-24.9-24.2-43-22.9
		c-16.4,1.2-30.1,10.9-37.2,24.5c-5.3-8-15.3-12.2-25.2-9.6c-12.4,3.2-19.8,15.9-16.6,28.3s15.9,19.8,28.3,16.6
		c3.5-0.9,4.9-1.3,7.5-3.5c3.6,17.5,18.7,29.7,35.6,33.8c-4.1,11.1-5,23.6-1.8,35.9c8,30.5,38,49.3,68.6,43.9c0,0.1,0,0.2,0,0.2
		c3.2,12.4,15.9,19.8,28.3,16.6c12.4-3.2,19.8-15.9,16.6-28.3c-1.2-4.7-3.9-8.8-7.3-11.7c10.5-14.1,14.8-32.7,10-51
		c-2.3-9-6.6-16.9-12.3-23.5C804.6,147,810.8,131.6,806.9,116.4z"/>
	<path class="st1" d="M797.5,107.3c-5.1-19.5-24.9-31.1-44.4-26c-9.3,2.4-16.8,8.3-21.6,15.8c-8.5-14.8-24.9-24.2-43-22.9
		c-16.4,1.2-30.1,10.9-37.2,24.5c-5.3-8-15.3-12.2-25.2-9.6c-12.4,3.2-19.8,15.9-16.6,28.3c3.2,12.4,15.9,19.8,28.3,16.6
		c3.5-0.9,6.6-2.6,9.2-4.8c3.6,17.5,17,31,33.8,35.2c-4.1,11.1-5,23.6-1.8,35.9c8,30.5,38,49.3,68.6,43.9c0,0.1,0,0.2,0,0.2
		c3.2,12.4,15.9,19.8,28.3,16.6c12.4-3.2,19.8-15.9,16.6-28.3c-1.2-4.7-3.9-8.8-7.3-11.7c10.5-14.1,14.8-32.7,10-51
		c-2.3-9-6.6-16.9-12.3-23.5C795.2,137.9,801.5,122.5,797.5,107.3z"/>
</g>
</svg>
